<?xml version="1.0" standalone="no"?>
<!DOCTYPE svg PUBLIC "-//W3C//DTD SVG 20010904//EN"
 "http://www.w3.org/TR/2001/REC-SVG-20010904/DTD/svg10.dtd">
<svg version="1.0" xmlns="http://www.w3.org/2000/svg"
 width="2012.000000pt" height="2012.000000pt" viewBox="0 0 2012.000000 2012.000000"
 preserveAspectRatio="xMidYMid meet">
<metadata>
Created by potrace 1.14, written by Peter Selinger 2001-2017
</metadata>
<g transform="translate(0.000000,2012.000000) scale(0.100000,-0.100000)"
fill="#000000" stroke="none">
<path d="M12092 15520 c-95 -20 -203 -106 -240 -190 -45 -105 -45 -140 1 -425
l23 -140 750 -6 c722 -6 844 -10 1204 -44 483 -44 1069 -143 1570 -264 192
-47 532 -147 615 -182 206 -85 406 -314 461 -528 8 -30 82 -350 164 -710 174
-766 282 -1240 462 -2026 142 -622 148 -667 111 -761 -26 -65 -73 -125 -121
-151 -74 -42 -44 -39 -927 -93 -181 -11 -400 -24 -485 -30 -630 -39 -1470 -47
-1855 -17 -607 47 -988 125 -1260 258 -178 86 -278 183 -320 310 -8 24 -53
274 -100 554 -48 281 -117 692 -155 915 -38 223 -157 932 -265 1575 -108 644
-205 1206 -217 1250 -98 377 -441 645 -827 645 -179 0 -3538 -507 -5566 -841
-606 -100 -1677 -282 -1870 -319 -428 -81 -1125 -217 -1210 -236 -60 -14 -152
-41 -205 -61 -313 -117 -386 -206 -457 -553 -16 -79 -17 -293 -20 -3106 l-3
-3022 62 -11 c202 -36 800 -132 803 -129 2 1 8 73 14 158 38 522 189 1003 408
1291 65 86 179 196 256 246 330 215 729 167 1024 -125 130 -130 279 -391 366
-648 105 -305 174 -832 147 -1125 -6 -66 -10 -122 -8 -123 2 -1 55 -10 118
-19 63 -9 243 -37 400 -61 157 -25 339 -52 405 -61 66 -9 203 -29 305 -45 201
-32 362 -56 1045 -155 248 -36 462 -68 476 -71 l26 -5 6 163 c22 546 150 1008
381 1378 47 76 78 118 164 220 400 474 1043 568 1532 225 149 -105 349 -330
454 -511 265 -457 388 -1105 325 -1714 -5 -52 -12 -107 -15 -121 -4 -22 -1
-28 18 -32 13 -3 331 -45 708 -92 l685 -87 390 6 c215 4 543 11 730 16 584 17
1030 31 1290 40 194 7 251 7 257 -3 4 -6 22 -55 39 -107 142 -425 385 -716
676 -806 74 -23 78 -23 676 -24 646 -2 646 -2 763 50 239 107 422 312 550 615
44 104 104 288 104 319 0 31 154 55 351 56 296 0 514 55 698 174 91 59 160
128 232 231 133 192 199 404 199 639 0 136 -76 606 -210 1296 -224 1157 -277
1425 -419 2115 -49 242 -120 586 -156 765 -99 485 -463 2213 -486 2305 -78
314 -215 597 -397 825 -42 52 -96 114 -121 138 -109 107 -391 297 -577 390
-483 241 -1519 439 -2934 561 -522 45 -943 66 -1018 51z m-1696 -961 c134 -24
220 -69 320 -167 78 -77 133 -170 158 -267 8 -33 49 -278 91 -545 42 -267 89
-568 105 -670 16 -102 52 -331 80 -510 28 -179 64 -408 80 -510 16 -102 59
-374 95 -605 36 -231 83 -530 105 -665 57 -361 55 -331 31 -384 -51 -115 -168
-164 -262 -109 -36 22 -51 54 -89 198 -37 139 -346 1233 -755 2675 -79 278
-158 557 -175 620 -18 63 -44 135 -58 159 -33 56 -90 97 -156 111 -53 11 -73
9 -1403 -105 -95 -8 -252 -22 -348 -30 -96 -8 -253 -22 -347 -30 -95 -8 -1383
-118 -2863 -245 -1479 -126 -2706 -232 -2725 -236 -64 -10 -134 -50 -180 -101
-27 -29 -74 -106 -115 -188 -38 -76 -77 -143 -85 -148 -28 -17 -97 10 -127 50
-26 33 -28 44 -28 122 0 150 50 268 166 394 58 63 84 82 162 120 114 56 20 42
1377 212 591 75 1287 162 1545 195 635 80 1463 185 2140 270 308 38 628 79
710 90 131 18 623 80 2025 255 195 24 373 46 395 48 22 2 47 4 56 5 8 1 42 -3
75 -9z m5054 -8588 c0 -24 -54 -170 -89 -239 -93 -184 -206 -282 -328 -282
-85 0 -196 88 -291 230 -36 54 -144 252 -139 256 1 1 119 7 262 14 143 7 319
15 390 20 193 11 195 11 195 1z"/>
<path d="M3245 8730 c-126 -15 -207 -60 -325 -180 -215 -219 -356 -603 -410
-1112 -15 -141 -12 -530 5 -695 38 -371 144 -718 290 -944 63 -97 183 -215
264 -258 121 -64 121 -64 616 -66 248 -2 485 1 528 5 340 35 624 467 732 1112
3 20 1 39 -4 42 -5 4 -54 11 -108 16 -54 5 -138 15 -188 20 -143 17 -242 28
-365 40 -63 6 -121 16 -127 22 -10 8 -13 77 -13 287 0 152 -5 326 -10 386 -49
537 -205 960 -433 1170 -82 76 -149 118 -222 139 -66 18 -156 25 -230 16z
m128 -572 c90 -111 173 -342 216 -599 69 -411 42 -882 -71 -1228 -60 -186
-143 -340 -193 -357 -54 -18 -175 212 -236 449 -77 301 -98 712 -54 1054 29
222 102 471 177 601 41 72 86 122 108 122 10 0 34 -19 53 -42z"/>
<path d="M8479 8365 c-192 -31 -377 -142 -531 -318 -217 -249 -357 -556 -436
-962 -45 -226 -47 -253 -47 -585 0 -308 2 -333 28 -480 52 -296 120 -517 220
-710 197 -384 451 -616 739 -675 63 -13 179 -15 794 -13 l719 3 92 33 c221 80
419 262 586 539 65 108 90 159 150 309 57 140 90 256 77 264 -6 4 -92 17 -193
29 -100 12 -209 26 -242 31 -33 5 -121 16 -195 25 -157 18 -274 35 -434 60
l-39 6 9 122 c11 154 12 487 1 637 -45 610 -216 1067 -524 1400 -90 97 -174
159 -297 219 -148 72 -307 94 -477 66z m281 -572 c140 -70 288 -282 369 -529
33 -101 75 -269 90 -359 29 -167 38 -473 21 -660 -56 -585 -330 -1078 -601
-1079 -272 -2 -547 486 -598 1059 -22 243 -23 338 -7 500 20 194 34 272 80
433 78 268 175 447 307 567 110 99 229 123 339 68z"/>
</g>
</svg>
